<?xml version="1.0" standalone="no"?>
<!DOCTYPE svg PUBLIC "-//W3C//DTD SVG 20010904//EN"
 "http://www.w3.org/TR/2001/REC-SVG-20010904/DTD/svg10.dtd">
<svg version="1.0" xmlns="http://www.w3.org/2000/svg"
 width="77.000000pt" height="77.000000pt" viewBox="0 0 77.000000 77.000000"
 preserveAspectRatio="xMidYMid meet">
<metadata>
Created by potrace 1.11, written by Peter Selinger 2001-2013
</metadata>
<g transform="translate(0.000000,77.000000) scale(0.100000,-0.100000)"
fill="#000000" stroke="none">
<path d="M210 713 c-58 -52 -47 -172 18 -200 30 -14 47 -13 79 5 66 36 66 161
1 206 -33 23 -64 20 -98 -11z"/>
<path d="M448 712 c-15 -13 -26 -28 -23 -32 3 -5 1 -12 -5 -15 -6 -4 -10 -27
-8 -52 3 -63 49 -114 97 -108 59 8 96 60 88 126 -11 96 -84 135 -149 81z"/>
<path d="M43 537 c-46 -20 -55 -119 -12 -132 10 -4 19 -10 19 -15 0 -15 68 -3
88 16 30 29 34 65 12 102 -11 18 -28 32 -37 33 -10 0 -25 2 -33 3 -8 2 -25 -1
-37 -7z"/>
<path d="M649 535 c-39 -21 -52 -58 -34 -100 23 -56 84 -68 130 -25 66 62 -15
167 -96 125z"/>
<path d="M328 429 c-7 -4 -15 -6 -19 -4 -10 7 -100 -41 -92 -49 3 -3 1 -6 -5
-6 -14 0 -72 -84 -72 -104 0 -9 -5 -16 -12 -16 -6 0 -9 -3 -5 -6 3 -4 0 -19
-9 -35 -8 -16 -12 -29 -10 -29 3 0 1 -12 -4 -26 -8 -21 -6 -32 12 -57 41 -59
46 -60 193 -41 75 9 118 9 175 -2 71 -13 136 -10 154 9 9 9 23 31 30 48 14 32
9 60 -21 129 -3 8 -7 17 -7 20 -1 3 -14 27 -29 53 -29 49 -97 107 -127 107 -9
0 -20 3 -24 7 -9 9 -114 11 -128 2z m77 -139 c0 -20 6 -26 29 -30 17 -3 29 -8
28 -12 -1 -5 -2 -14 -2 -22 0 -7 -8 -13 -17 -13 -37 0 -42 -3 -36 -19 4 -11
-1 -22 -13 -31 -17 -12 -20 -11 -30 19 -8 24 -17 33 -32 32 -12 -1 -22 6 -25
17 -4 15 2 21 26 27 18 5 32 15 33 23 2 36 5 40 22 37 11 -2 17 -12 17 -28z"/>
</g>
</svg>
